HIERARCHY
ROOT Hips
{
    OFFSET 0.000000 0.000000 0.000000
    CHANNELS 6 Xposition Yposition Zposition Zrotation Xrotation Yrotation
    JOINT Spine
    {
        OFFSET -0.000000 7.236184 0.000000
        CHANNELS 3 Zrotation Xrotation Yrotation
        JOINT Spine1
        {
            OFFSET -0.000000 20.420147 0.000000
            CHANNELS 3 Zrotation Xrotation Yrotation
            JOINT Neck
            {
                OFFSET -0.000000 20.336288 1.848754
                CHANNELS 3 Zrotation Xrotation Yrotation
                JOINT Head
                {
                    OFFSET -0.000000 12.354461 -1.764923
                    CHANNELS 3 Zrotation Xrotation Yrotation
                    End Site
                    {
                        OFFSET -0.000000 22.061537 0.000000
                    }
                }
            }
            JOINT LeftShoulder
            {
                OFFSET 3.573296 18.396038 -0.314103
                CHANNELS 3 Zrotation Xrotation Yrotation
                JOINT LeftArm
                {
                    OFFSET 10.880760 0.000000 0.000000
                    CHANNELS 3 Zrotation Xrotation Yrotation
                    JOINT LeftForeArm
                    {
                        OFFSET 27.185530 0.000000 0.000000
                        CHANNELS 3 Zrotation Xrotation Yrotation
                        JOINT LeftHand
                        {
                            OFFSET 27.825975 0.000000 0.000000
                            CHANNELS 3 Zrotation Xrotation Yrotation
                            End Site
                            {
                                OFFSET 13.236923 0.000000 0.000000
                            }
                        }
                    }
                }
            }
            JOINT RightShoulder
            {
                OFFSET -3.474926 18.396038 -0.314103
                CHANNELS 3 Zrotation Xrotation Yrotation
                JOINT RightArm
                {
                    OFFSET -10.880760 0.000000 0.000000
                    CHANNELS 3 Zrotation Xrotation Yrotation
                    JOINT RightForeArm
                    {
                        OFFSET -27.185530 0.000000 0.000000
                        CHANNELS 3 Zrotation Xrotation Yrotation
                        JOINT RightHand
                        {
                            OFFSET -27.825975 0.000000 0.000000
                            CHANNELS 3 Zrotation Xrotation Yrotation
                            End Site
                            {
                                OFFSET -13.236923 0.000000 0.000000
                            }
                        }
                    }
                }
            }
        }
    }
    JOINT LeftUpLeg
    {
        OFFSET 8.824615 0.000000 0.000000
        CHANNELS 3 Zrotation Xrotation Yrotation
        JOINT LeftLeg
        {
            OFFSET -0.000000 -35.111282 0.000000
            CHANNELS 3 Zrotation Xrotation Yrotation
            JOINT LeftFoot
            {
                OFFSET -0.000000 -42.324711 0.000000
                CHANNELS 3 Zrotation Xrotation Yrotation
                JOINT LeftToeBase
                {
                    OFFSET -0.000000 -5.735999 13.236923
                    CHANNELS 3 Zrotation Xrotation Yrotation
                    End Site
                    {
                        OFFSET -0.000000 0.000000 3.529846
                    }
                }
            }
        }
    }
    JOINT RightUpLeg
    {
        OFFSET -8.824615 0.000000 0.000000
        CHANNELS 3 Zrotation Xrotation Yrotation
        JOINT RightLeg
        {
            OFFSET -0.000000 -35.111282 0.000000
            CHANNELS 3 Zrotation Xrotation Yrotation
            JOINT RightFoot
            {
                OFFSET -0.000000 -42.324711 0.000000
                CHANNELS 3 Zrotation Xrotation Yrotation
                JOINT RightToeBase
                {
                    OFFSET -0.000000 -5.735999 13.236923
                    CHANNELS 3 Zrotation Xrotation Yrotation
                    End Site
                    {
                        OFFSET -0.000000 0.000000 3.529846
                    }
                }
            }
        }
    }
}
MOTION
Frames:    8
Frame Time:    0.008333
5.421871    80.230034    111.325813    3.200721    -10.004818    -171.041061    -1.632815    -11.895500    0.409513    2.103963    7.048495    0.450133    2.661604    9.186506    -4.893430    9.490957    -9.538541    -3.143971    -1.063109    17.001371    1.199316    -52.518223    33.954121    -35.986832    2.748698    -7.456369    -9.729229    16.777218    -6.861609    2.477880    6.637845    18.647953    -7.677614    44.341793    43.082836    33.438164    -2.950702    -8.369871    18.073591    -18.275999    -7.200409    -4.417709    6.385009    -28.213821    -5.911678    1.887772    37.033417    2.678139    -4.690173    -14.008832    -2.899168    16.113586    -23.299637    -18.800907    -13.296264    -6.487512    -4.890640    2.672197    9.896904    -3.250971    12.455228    -7.925345    -10.268991    -0.843736    0.833236    0.911530    
5.057066    80.204391    111.298393    3.247680    -10.038971    -171.148041    -1.678791    -11.895843    0.425039    2.155241    7.008826    0.468044    2.755735    9.033170    -5.022389    9.833400    -9.564702    -3.209409    -1.024849    17.007412    1.164281    -52.634586    33.866604    -35.744831    2.668275    -7.333371    -9.698662    16.858009    -6.747393    2.456204    6.706521    18.638863    -7.811296    44.587269    42.689491    33.138535    -3.011102    -8.343232    18.132715    -18.219238    -7.177441    -4.338386    6.139519    -28.261278    -5.894956    1.970157    37.225704    2.610295    -5.061206    -14.525950    -4.045013    14.685415    -19.556389    -16.962431    -13.543078    -6.608481    -4.989536    2.661956    10.077489    -3.222177    12.794621    -7.639326    -10.063921    -0.809445    0.575950    0.874788    
4.694479    80.181297    111.272263    3.289421    -10.079000    -171.258377    -1.728141    -11.899693    0.439729    2.206187    6.967907    0.485530    2.850773    8.884030    -5.147827    10.167220    -9.596687    -3.272661    -0.988256    17.015064    1.129815    -52.746311    33.781639    -35.505386    2.588011    -7.212128    -9.669970    16.937649    -6.634902    2.434399    6.773746    18.630095    -7.944130    44.828098    42.293888    32.846649    -3.071068    -8.319299    18.194328    -18.164640    -7.156325    -4.263130    5.893388    -28.309431    -5.882196    2.041794    37.406689    2.557401    -5.390630    -15.024095    -5.206138    13.064288    -16.019133    -14.959105    -13.795803    -6.735126    -5.075022    2.655652    10.253983    -3.201193    13.129221    -7.344267    -9.862680    -0.774535    0.317489    0.837355    
4.335074    80.162521    111.246826    3.329004    -10.119579    -171.374451    -1.775924    -11.901155    0.453460    2.257638    6.924754    0.502026    2.944160    8.738182    -5.267978    10.490827    -9.634219    -3.332070    -0.955111    17.025759    1.096202    -52.850243    33.701229    -35.268394    2.507614    -7.093229    -9.645341    17.015860    -6.524698    2.412743    6.838606    18.621841    -8.075418    45.069286    41.893471    32.560925    -3.132416    -8.299749    18.257364    -18.113651    -7.138679    -4.190352    5.655952    -28.348846    -5.870386    2.096296    37.569595    2.519403    -5.657989    -15.487701    -6.313209    11.355410    -12.869933    -12.909409    -14.049290    -6.861292    -5.131660    2.655372    10.421923    -3.198174    13.459004    -7.032643    -9.665278    -0.737595    0.054028    0.797706    
3.976934    80.149757    111.222672    3.363784    -10.164895    -171.499802    -1.824206    -11.902555    0.466012    2.309845    6.878271    0.517352    3.034675    8.594241    -5.381897    10.803842    -9.677374    -3.386646    -0.926087    17.040493    1.063583    -52.944565    33.627045    -35.032982    2.426258    -6.976779    -9.625924    17.093166    -6.416938    2.391094    6.900272    18.614185    -8.205407    45.315853    41.483833    32.279182    -3.196095    -8.285465    18.322113    -18.067610    -7.125352    -4.118860    5.424741    -28.378885    -5.858575    2.131017    37.707077    2.500820    -5.857941    -15.907177    -7.325781    9.654212    -10.178981    -10.912353    -14.309337    -6.993210    -5.154261    2.663907    10.583428    -3.217666    13.785504    -6.697386    -9.469331    -0.697796    -0.218347    0.754946    
3.620968    80.144516    111.200096    3.392905    -10.215681    -171.636459    -1.872480    -11.903494    0.477091    2.362816    6.827483    0.531371    3.120151    8.451963    -5.488091    11.104442    -9.725502    -3.435100    -0.901953    17.059416    1.032309    -53.027439    33.561764    -34.799118    2.343777    -6.863801    -9.612767    17.169584    -6.312593    2.369642    6.957787    18.607187    -8.333020    45.569981    41.064476    32.001057    -3.262434    -8.277079    18.388567    -18.028261    -7.116906    -4.048601    5.201184    -28.395721    -5.843987    2.145526    37.810833    2.503121    -5.990389    -16.274797    -8.214084    8.050351    -7.964639    -9.058455    -14.576609    -7.134111    -5.141133    2.682440    10.741776    -3.260997    14.107336    -6.335664    -9.273165    -0.654353    -0.501093    0.708222    
3.267123    80.147957    111.179207    3.416741    -10.272505    -171.786255    -1.919254    -11.904089    0.486815    2.416192    6.771899    0.544041    3.199822    8.311347    -5.585616    11.391189    -9.778429    -3.476664    -0.882334    17.081673    1.002748    -53.098862    33.507786    -34.565506    2.259678    -6.754669    -9.606358    17.245596    -6.212042    2.348726    7.010880    18.601236    -8.457273    45.832779    40.634472    31.726187    -3.331501    -8.275109    18.457043    -17.997290    -7.113677    -3.980132    4.986754    -28.396290    -5.823073    2.141165    37.874306    2.525754    -6.061234    -16.588018    -8.967643    6.601374    -6.187157    -7.402081    -14.851296    -7.288395    -5.094514    2.711462    10.903174    -3.325012    14.423299    -5.946097    -9.075563    -0.606779    -0.794018    0.656998    
2.918366    80.160728    111.160027    3.435685    -10.333248    -171.949127    -1.962284    -11.902662    0.495474    2.468871    6.711836    0.555291    3.272666    8.173559    -5.673077    11.660786    -9.834958    -3.510625    -0.866057    17.104813    0.976295    -53.159306    33.469353    -34.332920    2.174379    -6.650948    -9.606436    17.321035    -6.116747    2.329102    7.058880    18.596313    -8.576015    46.101563    40.199036    31.457125    -3.402863    -8.280160    18.527212    -17.976503    -7.116047    -3.915187    4.784699    -28.376442    -5.793755    2.119333    37.892521    2.567744    -6.078691    -16.845419    -9.583673    5.345792    -4.795076    -5.978221    -15.130748    -7.457106    -5.019120    2.751086    11.074077    -3.402528    14.727992    -5.533361    -8.878514    -0.555096    -1.094476    0.601290    
